<?xml version="1.0" encoding="UTF-8"?>
<svg width="195px" height="40px" viewBox="0 0 195 40" version="1.1" xmlns="http://www.w3.org/2000/svg" xmlns:xlink="http://www.w3.org/1999/xlink">
    <!-- Generator: Sketch 49.1 (51147) - http://www.bohemiancoding.com/sketch -->
    <title>10_Logo_Manila_Grey</title>
    <desc>Created with Sketch.</desc>
    <defs></defs>
    <g id="Page-1" stroke="none" stroke-width="1" fill="none" fill-rule="evenodd">
        <g id="10_Logo_Manila_Grey" transform="translate(0.000000, -1.000000)" fill="#FFFFFF">
            <path d="M5.9,11.09 C5.9,12.99 5.9,14.63 5.79,15.5 C5.73,16.1 5.61,16.5 5.19,16.63 C4.94844721,16.6928481 4.69957549,16.7231163 4.45,16.72 C4.2,16.72 4.12,16.78 4.12,16.88 C4.12,16.98 4.26,17.09 4.53,17.09 C5.36,17.09 6.66,17.03 7.14,17.03 C7.62,17.03 9.02,17.09 10.39,17.09 C10.61,17.09 10.78,17.03 10.78,16.88 C10.78,16.73 10.68,16.72 10.45,16.72 C10.0949532,16.7157133 9.74068711,16.6856341 9.39,16.63 C8.77,16.55 8.65,16.1 8.59,15.52 C8.48,14.63 8.48,12.99 8.48,11.09 L8.48,2.61 L11.09,2.67 C12.93,2.67 13.49,3.29 13.53,3.83 L13.53,4.06 C13.53,4.37 13.59,4.47 13.76,4.47 C13.93,4.47 13.92,4.35 13.94,4.14 C13.94,3.6 14.01,2.14 14.01,1.74 C14.01,1.34 14.01,1.31 13.84,1.31 C13.1826261,1.44943099 12.5119667,1.51649693 11.84,1.51 L3.64,1.51 C2.96,1.51 2.18,1.51 1.58,1.41 C1.27545853,1.35779109 0.9771828,1.27400577 0.69,1.16 C0.56,1.16 0.5,1.29 0.44,1.56 C0.38,1.83 4.54747351e-13,3.56 4.54747351e-13,3.93 C4.54747351e-13,4.3 4.54747351e-13,4.26 0.19,4.26 C0.38,4.26 0.38,4.18 0.42,4.02 C0.492387546,3.75781184 0.610905858,3.5106165 0.77,3.29 C1.08,2.84 1.58,2.73 2.77,2.69 L5.86,2.61 L5.9,11.09 Z" id="Shape"></path>
            <path d="M20.5,8.03 C20.4617594,8.03045572 20.425258,8.01405027 20.4002113,7.9851502 C20.3751646,7.95625013 20.3641137,7.91778762 20.37,7.88 L20.37,7.45 C20.37,4.31 20.37,3.73 20.37,3.07 C20.37,2.41 20.58,1.99 21.14,1.89 C21.3371355,1.84653916 21.5381542,1.82308697 21.74,1.82 C21.99,1.82 22.11,1.82 22.11,1.64 C22.11,1.46 21.97,1.45 21.68,1.45 C20.87,1.45 19.57,1.51 19.07,1.51 C18.57,1.51 17.21,1.45 16.07,1.45 C15.78,1.45 15.64,1.45 15.64,1.64 C15.64,1.83 15.76,1.82 15.99,1.82 C16.2617694,1.81292807 16.5334731,1.83640864 16.8,1.89 C17.48,2.03 17.65,2.36 17.69,3.07 C17.73,3.78 17.69,4.31 17.69,7.45 L17.69,11.09 C17.69,12.99 17.69,14.63 17.58,15.5 C17.5,16.1 17.4,16.5 16.98,16.63 C16.7384472,16.6928481 16.4895755,16.7231163 16.24,16.72 C15.99,16.72 15.91,16.78 15.91,16.88 C15.91,16.98 16.05,17.09 16.32,17.09 C17.15,17.09 18.45,17.03 18.93,17.03 C19.41,17.03 20.81,17.09 22.16,17.09 C22.4,17.09 22.57,17.03 22.57,16.88 C22.57,16.73 22.47,16.72 22.24,16.72 C21.8849532,16.7157133 21.5306871,16.6856341 21.18,16.63 C20.56,16.55 20.44,16.1 20.38,15.52 C20.27,14.63 20.27,12.99 20.27,11.09 L20.27,9.27 C20.27,9.17 20.34,9.15 20.4,9.15 L28.3,9.15 C28.3662742,9.15 28.42,9.20372583 28.42,9.27 L28.42,11.09 C28.42,12.99 28.42,14.63 28.32,15.5 C28.24,16.1 28.13,16.5 27.72,16.63 C27.4783162,16.6921558 27.2295368,16.7224127 26.98,16.72 C26.73,16.72 26.64,16.78 26.64,16.88 C26.64,16.98 26.79,17.09 27.08,17.09 C27.89,17.09 29.19,17.03 29.67,17.03 C30.15,17.03 31.55,17.09 32.89,17.09 C33.14,17.09 33.31,17.03 33.31,16.88 C33.31,16.73 33.2,16.72 32.97,16.72 C32.6182697,16.715725 32.2673273,16.6856442 31.92,16.63 C31.3,16.55 31.18,16.1 31.11,15.52 C31.01,14.63 31.01,12.99 31.01,11.09 L31.01,7.45 C31.01,4.31 31.01,3.73 31.01,3.07 C31.01,2.41 31.22,1.99 31.78,1.89 C31.9770301,1.84591524 32.1781132,1.82245554 32.38,1.82 C32.62,1.82 32.75,1.82 32.75,1.64 C32.75,1.46 32.6,1.45 32.31,1.45 C31.51,1.45 30.2,1.51 29.71,1.51 C29.22,1.51 27.85,1.45 26.71,1.45 C26.42,1.45 26.27,1.45 26.27,1.64 C26.27,1.83 26.4,1.82 26.63,1.82 C26.8984744,1.81238361 27.1669281,1.8358733 27.43,1.89 C28.12,2.03 28.28,2.36 28.32,3.07 C28.36,3.78 28.32,4.31 28.32,7.45 L28.32,7.88 C28.32,7.99 28.26,8.03 28.2,8.03 L20.5,8.03 Z" id="Shape"></path>
            <path d="M38.34,11.09 C38.34,12.99 38.34,14.63 38.24,15.5 C38.15,16.1 38.05,16.5 37.64,16.63 C37.3947905,16.6914801 37.1427934,16.7217197 36.89,16.72 C36.64,16.72 36.56,16.78 36.56,16.88 C36.56,16.98 36.71,17.09 36.98,17.09 C37.8,17.09 39.11,17.03 39.58,17.03 C40.8,17.03 42.19,17.15 45.31,17.15 C46.1,17.15 46.31,17.15 46.43,16.61 C46.5727174,15.8538089 46.662933,15.0886477 46.7,14.32 C46.7,14.11 46.7,13.94 46.53,13.94 C46.36,13.94 46.35,14.03 46.3,14.26 C46.16,15.1 45.91,15.54 45.37,15.79 C44.7435116,15.9882401 44.085911,16.0695927 43.43,16.03 C41.32,16.03 40.99,15.72 40.95,14.3 C40.95,13.7 40.95,11.79 40.95,11.09 L40.95,9.46 C40.95,9.33 40.95,9.25 41.07,9.25 C41.57,9.25 43.62,9.25 44.01,9.31 C44.77,9.39 45.01,9.7 45.17,10.12 C45.2127604,10.3646603 45.239484,10.6118538 45.25,10.86 C45.25,10.97 45.25,11.05 45.44,11.05 C45.63,11.05 45.62,10.82 45.62,10.66 C45.62,10.5 45.62,9.66 45.7,9.27 C45.77,8.22 45.87,7.88 45.87,7.76 C45.87,7.64 45.81,7.59 45.73,7.59 C45.65,7.59 45.54,7.7 45.39,7.86 C45.24,8.02 44.9,8.13 44.39,8.17 C43.88,8.21 41.54,8.17 41.08,8.17 C40.96,8.17 40.94,8.08 40.94,7.94 L40.94,2.79 C40.94,2.65 40.94,2.59 41.08,2.59 C41.5,2.59 43.67,2.59 44.02,2.67 C45.02,2.79 45.26,3.04 45.41,3.42 C45.4911005,3.65822047 45.5316634,3.90835835 45.53,4.16 C45.53,4.35 45.53,4.45 45.72,4.45 C45.91,4.45 45.9,4.33 45.92,4.22 C45.94,4.11 46.01,3.06 46.03,2.86 C46.09,1.91 46.19,1.66 46.19,1.51 C46.19,1.36 46.19,1.33 46.07,1.33 C45.9576904,1.34602941 45.847182,1.37281932 45.74,1.41 C45.4455553,1.46503604 45.1485063,1.5050876 44.85,1.53 C44.45,1.53 40.34,1.53 39.68,1.53 C39.02,1.53 37.79,1.47 36.68,1.47 C36.37,1.47 36.22,1.47 36.22,1.66 C36.22,1.85 36.35,1.84 36.57,1.84 C36.8417694,1.83292807 37.1134731,1.85640864 37.38,1.91 C38.06,2.05 38.23,2.38 38.27,3.09 C38.31,3.8 38.27,4.33 38.27,7.47 L38.34,11.09 Z" id="Shape"></path>
            <path d="M60.67,11.09 C60.67,12.99 60.67,14.63 60.56,15.5 C60.48,16.1 60.38,16.5 59.96,16.63 C59.7184472,16.6928481 59.4695755,16.7231163 59.22,16.72 C58.97,16.72 58.89,16.78 58.89,16.88 C58.89,16.98 59.03,17.09 59.3,17.09 C60.13,17.09 61.43,17.03 61.91,17.03 C62.39,17.03 63.75,17.09 65.12,17.09 C65.34,17.09 65.51,17.03 65.51,16.88 C65.51,16.73 65.41,16.72 65.18,16.72 C64.8249532,16.7157133 64.4706871,16.6856341 64.12,16.63 C63.5,16.55 63.38,16.1 63.32,15.52 C63.21,14.63 63.21,12.99 63.21,11.09 L63.21,2.79 C63.21,2.56 63.27,2.44 63.38,2.39 C63.6417451,2.32682498 63.9109281,2.29990668 64.18,2.31 C64.946771,2.31292032 65.6848813,2.60174608 66.25,3.12 C67.0881007,3.92676658 67.5334629,5.05842453 67.47,6.22 C67.5710526,7.90312767 66.3681167,9.38399816 64.7,9.63 C64.27,9.63 64.12,9.7 64.12,9.86 C64.12,10.02 64.27,10.03 64.37,10.05 C64.5164896,10.060191 64.6635104,10.060191 64.81,10.05 C66.1604771,10.1088058 67.4746408,9.60366201 68.4380329,8.65544145 C69.401425,7.70722089 69.9273636,6.40124036 69.89,5.05 C69.8783385,4.13333066 69.521219,3.25481673 68.89,2.59 C68.56,2.28 67.63,1.41 65.04,1.41 C64.04,1.41 62.89,1.47 62.04,1.47 C61.46,1.47 60.16,1.41 59.04,1.41 C58.73,1.41 58.59,1.41 58.59,1.6 C58.59,1.79 58.71,1.78 58.94,1.78 C59.2117694,1.77292807 59.4834731,1.79640864 59.75,1.85 C60.43,1.99 60.6,2.32 60.64,3.03 C60.68,3.74 60.64,4.27 60.64,7.41 L60.67,11.09 Z" id="Shape"></path>
            <path d="M74.42,11.09 C74.42,12.99 74.42,14.63 74.31,15.5 C74.23,16.1 74.13,16.5 73.71,16.63 C73.4684472,16.6928481 73.2195755,16.7231163 72.97,16.72 C72.72,16.72 72.64,16.78 72.64,16.88 C72.64,16.98 72.78,17.09 73.05,17.09 C73.88,17.09 75.18,17.03 75.66,17.03 C76.88,17.03 78.26,17.15 81.39,17.15 C82.17,17.15 82.39,17.15 82.5,16.61 C82.6476255,15.8545686 82.7378831,15.0890504 82.77,14.32 C82.77,14.11 82.77,13.94 82.61,13.94 C82.45,13.94 82.42,14.03 82.38,14.26 C82.23,15.1 81.99,15.54 81.45,15.79 C80.8199061,15.9874687 80.1591719,16.0687898 79.5,16.03 C77.39,16.03 77.06,15.72 77.02,14.3 C77.02,13.7 77.02,11.79 77.02,11.09 L77.02,9.46 C77.02,9.33 77.02,9.25 77.15,9.25 C77.64,9.25 79.69,9.25 80.08,9.31 C80.85,9.39 81.14,9.7 81.24,10.12 C81.2827604,10.3646603 81.309484,10.6118538 81.32,10.86 C81.3134015,10.9121363 81.3312864,10.9643935 81.3684464,11.0015536 C81.4056065,11.0387136 81.4578637,11.0565985 81.51,11.05 C81.7,11.05 81.7,10.82 81.7,10.66 C81.7,10.5 81.7,9.66 81.78,9.27 C81.8086468,8.76390578 81.865401,8.25979497 81.95,7.76 C81.95,7.64 81.88,7.59 81.8,7.59 C81.72,7.59 81.61,7.7 81.47,7.86 C81.1878379,8.08602715 80.8305357,8.19679083 80.47,8.17 C79.99,8.17 77.61,8.17 77.16,8.17 C77.03,8.17 77.01,8.08 77.01,7.94 L77.01,2.79 C77.01,2.65 77.01,2.59 77.16,2.59 C77.57,2.59 79.74,2.59 80.09,2.67 C81.09,2.79 81.34,3.04 81.48,3.42 C81.5611005,3.65822047 81.6016634,3.90835835 81.6,4.16 C81.6,4.35 81.6,4.45 81.79,4.45 C81.98,4.45 81.98,4.33 82,4.22 C82.02,4.11 82.08,3.06 82.1,2.86 C82.131714,2.40720799 82.1884675,1.95651858 82.27,1.51 C82.27,1.41 82.27,1.33 82.14,1.33 C82.0279311,1.34726371 81.9175333,1.37402681 81.81,1.41 C81.5156732,1.46576616 81.218586,1.50582285 80.92,1.53 C80.53,1.53 76.41,1.53 75.75,1.53 C75.09,1.53 73.87,1.47 72.75,1.47 C72.44,1.47 72.3,1.47 72.3,1.66 C72.3,1.85 72.42,1.84 72.65,1.84 C72.9184744,1.83238361 73.1869281,1.8558733 73.45,1.91 C74.14,2.05 74.3,2.38 74.34,3.09 C74.38,3.8 74.39,4.33 74.39,7.47 L74.42,11.09 Z" id="Shape"></path>
            <path d="M89.24,5.59 L89.3,5.59 C89.67,5.98 91.97,8.59 94.23,10.8 C96.49,13.01 99.02,15.64 100.33,16.88 C100.56,17.11 100.8,17.34 101.03,17.34 C101.26,17.34 101.3,17.15 101.3,16.7 L101.53,3.64 C101.53,2.49 101.71,2.05 102.29,1.89 C102.491732,1.83437499 102.700944,1.81075428 102.91,1.82 C103.16,1.82 103.29,1.76 103.29,1.64 C103.29,1.52 103.08,1.45 102.81,1.45 C101.81,1.45 101.01,1.51 100.81,1.51 C100.38,1.51 99.39,1.45 98.31,1.45 C98,1.45 97.77,1.45 97.77,1.64 C97.77,1.83 97.85,1.82 98.1,1.82 C98.4714042,1.80007066 98.8434734,1.84404248 99.2,1.95 C99.7,2.15 99.88,2.55 99.9,3.81 L100.11,13.1 L100.01,13.1 C99.65,12.77 96.86,9.79 95.45,8.38 C92.45,5.38 89.29,2.01 89.04,1.74 C88.79,1.47 88.5,1.1 88.28,1.1 C88.06,1.1 88.01,1.39 88.01,1.8 L87.82,14.05 C87.82,15.85 87.72,16.45 87.18,16.61 C86.8766302,16.6897705 86.5636087,16.7267946 86.25,16.72 C86.04,16.72 85.92,16.72 85.92,16.88 C85.92,17.04 86.1,17.09 86.37,17.09 C87.45,17.09 88.37,17.03 88.61,17.03 C89,17.03 89.83,17.09 91.17,17.09 C91.46,17.09 91.65,17.09 91.65,16.88 C91.65,16.67 91.52,16.72 91.3,16.72 C90.9340385,16.7327536 90.5686342,16.682003 90.22,16.57 C89.81,16.43 89.54,15.89 89.5,14.28 L89.24,5.59 Z" id="Shape"></path>
            <path d="M108.5,11.09 C108.5,13.09 108.5,14.73 108.39,15.6 C108.33,16.2 108.21,16.6 107.79,16.6 C107.548447,16.6628481 107.299575,16.6931163 107.05,16.69 C106.8,16.69 106.72,16.75 106.72,16.85 C106.72,16.95 106.86,17.06 107.13,17.06 C107.96,17.06 109.26,17 109.74,17 C110.22,17 111.6,17.06 112.97,17.06 C113.19,17.06 113.36,17 113.36,16.85 C113.36,16.7 113.26,16.69 113.03,16.69 C112.674953,16.6857133 112.320687,16.6556341 111.97,16.6 C111.35,16.52 111.21,16.15 111.15,15.6 C111.06,14.71 111.06,13.08 111.06,11.07 L111.06,7.43 C111.06,4.29 111.06,3.71 111.06,3.05 C111.06,2.39 111.27,1.97 111.83,1.87 C112.033509,1.82420454 112.241404,1.80073254 112.45,1.8 C112.66,1.8 112.78,1.8 112.78,1.6 C112.78,1.4 112.62,1.43 112.35,1.43 C111.56,1.43 110.35,1.49 109.82,1.49 C109.29,1.49 107.92,1.43 107.13,1.43 C106.8,1.43 106.64,1.43 106.64,1.6 C106.64,1.77 106.76,1.8 106.97,1.8 C107.219744,1.79358878 107.469074,1.82391273 107.71,1.89 C108.17,1.99 108.38,2.34 108.42,3.05 C108.46,3.76 108.42,4.29 108.42,7.43 L108.5,11.09 Z" id="Shape"></path>
            <path d="M119.4,5.59 L119.47,5.59 C119.84,5.98 122.14,8.59 124.39,10.8 C126.64,13.01 129.19,15.64 130.49,16.88 C130.72,17.11 130.97,17.34 131.2,17.34 C131.43,17.34 131.46,17.15 131.46,16.7 L131.69,3.64 C131.69,2.49 131.88,2.05 132.46,1.89 C132.661732,1.83437499 132.870944,1.81075428 133.08,1.82 C133.33,1.82 133.45,1.76 133.45,1.64 C133.45,1.52 133.24,1.45 132.97,1.45 C131.97,1.45 131.18,1.51 130.97,1.51 C130.53,1.51 129.54,1.45 128.46,1.45 C128.15,1.45 127.93,1.45 127.93,1.64 C127.93,1.83 128.01,1.82 128.26,1.82 C128.628116,1.80002404 128.996908,1.84400846 129.35,1.95 C129.85,2.15 130.04,2.55 130.06,3.81 L130.26,13.1 L130.16,13.1 C129.81,12.77 127.02,9.79 125.61,8.38 C122.61,5.38 119.45,2.01 119.2,1.74 C118.95,1.47 118.66,1.1 118.43,1.1 C118.2,1.1 118.16,1.39 118.16,1.8 L117.98,14.05 C117.98,15.85 117.87,16.45 117.34,16.61 C117.033231,16.6897996 116.716905,16.7268165 116.4,16.72 C116.2,16.72 116.07,16.72 116.07,16.88 C116.07,17.04 116.26,17.09 116.53,17.09 C117.6,17.09 118.53,17.03 118.76,17.03 C119.16,17.03 119.98,17.09 121.33,17.09 C121.62,17.09 121.8,17.09 121.8,16.88 C121.8,16.67 121.68,16.72 121.45,16.72 C121.087313,16.7328133 120.725183,16.6820474 120.38,16.57 C119.96,16.43 119.69,15.89 119.65,14.28 L119.4,5.59 Z" id="Shape"></path>
            <path d="M140.14,17.38 C141.295662,17.4196163 142.438153,17.1244439 143.43,16.53 C144.684051,15.7658736 145.443731,14.3984496 145.43,12.93 C145.43,10.93 144.52,9.58 142.03,7.66 L141.45,7.22 C139.74,5.92 139.26,5.22 139.26,4.22 C139.269098,3.59860997 139.542966,3.01064089 140.012783,2.60384814 C140.4826,2.19705539 141.103699,2.01011329 141.72,2.09 C142.593413,2.02295576 143.442212,2.39853075 143.98,3.09 C144.29003,3.48024716 144.477889,3.95337302 144.52,4.45 C144.52,4.7 144.58,4.82 144.72,4.82 C144.86,4.82 144.95,4.66 144.95,4.2 C144.95,2.59 145.03,1.99 145.03,1.72 C145.03,1.45 144.93,1.52 144.74,1.47 C143.843704,1.2278641 142.918374,1.11009494 141.99,1.12 C139.12,1.12 137.21,2.76 137.21,5.03 C137.21,6.71 138,8.15 140.27,9.93 L141.27,10.68 C142.98,12 143.27,12.97 143.27,13.99 C143.229888,14.6758213 142.911518,15.3155375 142.388583,15.7610701 C141.865649,16.2066027 141.183486,16.4193261 140.5,16.35 C139.127108,16.4669447 137.865992,15.5883673 137.5,14.26 C137.398771,13.9149175 137.338359,13.5591547 137.32,13.2 C137.32,13.04 137.32,12.85 137.11,12.85 C136.9,12.85 136.88,13.08 136.86,13.39 C136.84,13.7 136.76,14.96 136.76,16.1 C136.76,16.55 136.82,16.66 137.15,16.8 C138.093995,17.2040413 139.113403,17.4017861 140.14,17.38 Z" id="Shape"></path>
            <path d="M150.44,10.47 C150.44,13.47 151.22,15 152.28,15.95 C153.576742,16.985015 155.214861,17.4953658 156.87,17.38 C158.440532,17.4473521 159.97786,16.9146502 161.17,15.89 C162.91,14.4 163.17,11.96 163.17,9.66 L163.17,7.45 C163.17,4.31 163.17,3.73 163.17,3.07 C163.17,2.41 163.37,1.99 163.93,1.89 C164.126663,1.84378673 164.32798,1.82029969 164.53,1.82 C164.78,1.82 164.91,1.82 164.91,1.64 C164.91,1.46 164.76,1.45 164.47,1.45 C163.66,1.45 162.36,1.51 162.11,1.51 C162.11,1.51 160.79,1.45 159.73,1.45 C159.44,1.45 159.3,1.45 159.3,1.64 C159.3,1.83 159.42,1.82 159.65,1.82 C159.901815,1.81564676 160.15334,1.83912244 160.4,1.89 C161.08,2.03 161.24,2.36 161.29,3.07 C161.34,3.78 161.29,4.31 161.29,7.45 L161.29,10.04 C161.29,12.17 161.22,14.04 160.09,15.17 C159.3168,15.8970688 158.291244,16.295099 157.23,16.28 C156.294646,16.3242273 155.375896,16.0215384 154.65,15.43 C153.65,14.61 153.03,13.35 153.03,10.35 L153.03,7.45 C153.03,4.31 153.03,3.73 153.03,3.07 C153.03,2.41 153.24,1.99 153.8,1.89 C153.996569,1.84325284 154.197949,1.81975851 154.4,1.82 C154.61,1.82 154.73,1.82 154.73,1.64 C154.73,1.46 154.59,1.45 154.28,1.45 C153.53,1.45 152.28,1.51 151.73,1.51 C151.18,1.51 149.81,1.45 148.73,1.45 C148.42,1.45 148.28,1.45 148.28,1.64 C148.28,1.83 148.4,1.82 148.63,1.82 C148.898474,1.81238361 149.166928,1.8358733 149.43,1.89 C150.12,2.03 150.28,2.36 150.32,3.07 C150.36,3.78 150.37,4.31 150.37,7.45 L150.44,10.47 Z" id="Shape"></path>
            <path d="M171.73,7.45 C171.73,4.31 171.73,3.73 171.73,3.07 C171.73,2.41 171.94,1.99 172.5,1.89 C172.767398,1.8427532 173.038461,1.819328 173.31,1.82 C173.55,1.82 173.68,1.82 173.68,1.64 C173.68,1.46 173.53,1.45 173.24,1.45 C172.44,1.45 170.93,1.51 170.43,1.51 C169.93,1.51 168.57,1.45 167.6,1.45 C167.29,1.45 167.14,1.45 167.14,1.64 C167.14,1.83 167.27,1.82 167.49,1.82 C167.722069,1.81312091 167.95404,1.83665422 168.18,1.89 C168.86,2.03 169.02,2.36 169.07,3.07 C169.12,3.78 169.07,4.31 169.07,7.45 L169.07,11.09 C169.07,12.99 169.07,14.63 168.96,15.5 C168.88,16.1 168.78,16.5 168.36,16.63 C168.118447,16.6928481 167.869575,16.7231163 167.62,16.72 C167.37,16.72 167.29,16.78 167.29,16.88 C167.29,16.98 167.43,17.09 167.7,17.09 C168.53,17.09 169.83,17.03 170.31,17.03 C171.98,17.03 173.31,17.15 176.31,17.15 C177.38,17.15 177.49,17.05 177.61,16.59 C177.773949,15.8057454 177.877585,15.0100847 177.92,14.21 C177.92,13.97 177.92,13.86 177.76,13.86 C177.6,13.86 177.55,13.99 177.53,14.17 C177.465375,14.6245404 177.278759,15.053066 176.99,15.41 C176.47,15.97 175.67,15.99 174.57,15.99 C172.96,15.99 172.42,15.85 172.07,15.54 C171.72,15.23 171.63,13.74 171.63,11.09 L171.73,7.45 Z" id="Shape"></path>
            <path d="M188.13,11.69 C188.228428,11.6774992 188.319903,11.7428383 188.34,11.84 L189.99,16.22 C190.036701,16.3064739 190.0437,16.4089256 190.009192,16.5009469 C189.974684,16.5929683 189.902045,16.6655561 189.81,16.7 C189.6,16.7 189.52,16.76 189.52,16.88 C189.52,17 189.77,17.03 190.14,17.05 C191.79,17.05 193.3,17.05 194.05,17.05 C194.8,17.05 195,17.05 195,16.84 C195,16.63 194.9,16.68 194.73,16.68 C194.437582,16.6818913 194.145838,16.6517109 193.86,16.59 C193.43,16.49 192.86,16.2 192.04,14.34 C190.72,11.2 187.41,2.76 186.91,1.62 C186.7,1.14 186.58,0.96 186.39,0.96 C186.2,0.96 186.06,1.18 185.82,1.78 L180.62,14.78 C180.21,15.78 179.82,16.52 178.86,16.65 C178.646805,16.6608776 178.433195,16.6608776 178.22,16.65 C178.06,16.65 177.98,16.65 177.98,16.81 C177.98,16.97 178.1,17.02 178.37,17.02 C179.44,17.02 180.58,16.96 180.81,16.96 C181.45,16.96 182.34,17.02 183,17.02 C183.23,17.02 183.35,17.02 183.35,16.81 C183.35,16.6 183.29,16.65 183.04,16.65 L182.73,16.65 C182.09,16.65 181.91,16.38 181.91,16.01 C181.942989,15.5725311 182.04772,15.1434688 182.22,14.74 L183.33,11.79 C183.33,11.66 183.42,11.62 183.52,11.62 L188.13,11.69 Z M183.93,10.69 C183.85,10.69 183.83,10.62 183.85,10.54 L185.75,5.45 C185.75,5.37 185.82,5.27 185.88,5.27 C185.94,5.27 185.96,5.37 185.98,5.45 L187.84,10.56 C187.84,10.62 187.84,10.69 187.74,10.69 L183.93,10.69 Z" id="Shape"></path>
            <rect id="Rectangle-path" fill-rule="nonzero" x="0" y="24.58" width="194.91" height="1"></rect>
            <path d="M47.64,39.43 C47.64,39.78 47.51,40.18 47.22,40.24 C47.1170044,40.2518155 47.0129956,40.2518155 46.91,40.24 C46.81,40.24 46.74,40.24 46.74,40.32 C46.74,40.4 46.83,40.43 46.93,40.43 L47.93,40.43 C48.12,40.43 48.59,40.43 49.02,40.43 C49.18,40.43 49.27,40.43 49.27,40.32 C49.27,40.21 49.2,40.24 49.11,40.24 C48.9653177,40.2383348 48.8212041,40.2215774 48.68,40.19 C48.5,40.19 48.37,40.06 48.37,39.86 C48.3606645,39.6968001 48.3606645,39.5331999 48.37,39.37 L48.91,35.26 L49.99,37.55 C50.11,37.84 50.93,39.43 51.17,39.9 C51.34,40.21 51.44,40.42 51.54,40.42 C51.64,40.42 51.68,40.33 51.92,39.84 L54.17,35.14 L54.79,39.69 C54.79,39.98 54.79,40.12 54.73,40.14 C54.67,40.16 54.62,40.2 54.62,40.25 C54.62,40.3 54.68,40.35 54.92,40.37 C55.33,40.37 56.76,40.43 57.02,40.43 C57.28,40.43 57.29,40.43 57.29,40.32 C57.29,40.21 57.22,40.24 57.12,40.24 C56.9028407,40.2391796 56.6870588,40.2054637 56.48,40.14 C56.17,40.05 56.07,39.75 55.98,39.14 L55.03,32.74 C55.03,32.53 54.94,32.42 54.85,32.42 C54.76,32.42 54.69,32.51 54.62,32.67 L51.81,38.58 L48.98,32.74 C48.85,32.47 48.79,32.42 48.7,32.42 C48.61,32.42 48.56,32.52 48.53,32.69 L47.64,39.43 Z" id="Shape"></path>
            <path d="M72.86,37.79 C72.90536,37.7879234 72.9464253,37.8166691 72.96,37.86 L73.79,40.05 C73.8129604,40.0945595 73.8150847,40.1469809 73.7958051,40.1932521 C73.7765254,40.2395233 73.7378073,40.2749271 73.69,40.29 C73.59,40.29 73.55,40.29 73.55,40.39 C73.55,40.49 73.67,40.46 73.86,40.47 C74.69,40.47 75.44,40.47 75.81,40.47 C76.18,40.47 76.29,40.47 76.29,40.37 C76.29,40.27 76.24,40.28 76.16,40.28 C76.0136453,40.2935294 75.8663547,40.2935294 75.72,40.28 C75.5,40.23 75.2,40.09 74.81,39.15 C74.15,37.58 72.49,33.36 72.25,32.79 C72.14,32.56 72.08,32.46 71.99,32.46 C71.9,32.46 71.82,32.58 71.7,32.88 L69.1,39.37 C68.9,39.89 68.7,40.24 68.22,40.3 L67.9,40.3 C67.82,40.3 67.78,40.3 67.78,40.39 C67.78,40.48 67.84,40.49 67.97,40.49 C68.51,40.49 69.08,40.49 69.2,40.49 L70.29,40.49 C70.41,40.49 70.47,40.49 70.47,40.39 C70.47,40.29 70.47,40.3 70.31,40.3 L70.16,40.3 C69.84,40.3 69.74,40.17 69.74,39.98 C69.7616985,39.7632103 69.8156257,39.550872 69.9,39.35 L70.46,37.87 C70.46,37.81 70.46,37.79 70.55,37.79 L72.86,37.79 Z M70.76,37.27 C70.76,37.27 70.71,37.27 70.76,37.2 L71.76,34.66 C71.76,34.61 71.76,34.56 71.82,34.56 C71.88,34.56 71.82,34.56 71.87,34.66 L72.8,37.21 C72.8,37.21 72.8,37.27 72.75,37.27 L70.76,37.27 Z" id="Shape"></path>
            <path d="M88.8,34.71 C88.99,34.91 90.14,36.2 91.27,37.32 C92.4,38.44 93.66,39.74 94.27,40.32 C94.38,40.43 94.5,40.54 94.62,40.54 C94.74,40.54 94.75,40.45 94.75,40.22 L94.87,33.7 C94.87,33.12 94.96,32.9 95.25,32.82 C95.3528679,32.8061303 95.4571321,32.8061303 95.56,32.82 C95.68,32.82 95.75,32.82 95.75,32.72 C95.75,32.62 95.64,32.63 95.51,32.63 C95,32.63 94.61,32.63 94.51,32.63 C94.41,32.63 93.8,32.63 93.26,32.63 C93.11,32.63 92.99,32.63 92.99,32.72 C92.99,32.81 92.99,32.82 93.16,32.82 C93.34534,32.8112116 93.5309145,32.8314561 93.71,32.88 C93.96,32.98 94.05,33.18 94.06,33.81 L94.16,38.45 C93.98,38.29 92.59,36.8 91.89,36.1 C90.37,34.6 88.8,32.91 88.68,32.78 C88.56,32.65 88.41,32.45 88.3,32.45 C88.19,32.45 88.16,32.6 88.16,32.81 L88.07,38.93 C88.07,39.83 88.07,40.13 87.75,40.21 C87.5959736,40.2458598 87.4381235,40.2626524 87.28,40.26 C87.18,40.26 87.12,40.26 87.12,40.35 C87.12,40.44 87.21,40.45 87.34,40.45 C87.88,40.45 88.34,40.45 88.46,40.45 C88.58,40.45 89.07,40.45 89.74,40.45 C89.89,40.45 89.98,40.45 89.98,40.35 C89.98,40.25 89.92,40.26 89.81,40.26 C89.6273826,40.2663667 89.4449582,40.2427191 89.27,40.19 C89.06,40.12 88.93,39.85 88.91,39.04 L88.8,34.71 Z" id="Shape"></path>
            <path d="M109.3,37.46 C109.31899,38.210533 109.298963,38.9615458 109.24,39.71 C109.24,40.01 109.15,40.19 108.94,40.23 C108.817052,40.2437879 108.692948,40.2437879 108.57,40.23 C108.45,40.23 108.41,40.23 108.41,40.32 C108.41,40.41 108.48,40.42 108.61,40.42 L109.92,40.42 C110.2,40.42 110.85,40.42 111.53,40.42 C111.64,40.42 111.73,40.42 111.73,40.32 C111.73,40.22 111.68,40.23 111.56,40.23 C111.383472,40.2399056 111.206528,40.2399056 111.03,40.23 C110.72,40.23 110.65,40 110.62,39.72 C110.62,39.28 110.62,38.46 110.62,37.46 L110.62,35.64 C110.62,34.07 110.62,33.78 110.62,33.45 C110.62,33.12 110.72,32.91 111,32.86 L111.31,32.86 C111.42,32.86 111.48,32.86 111.48,32.75 C111.48,32.64 111.4,32.67 111.26,32.67 L110,32.67 L108.65,32.67 C108.49,32.67 108.41,32.67 108.41,32.75 C108.41,32.83 108.47,32.86 108.57,32.86 C108.692827,32.8441998 108.817173,32.8441998 108.94,32.86 C109.17,32.86 109.27,33.09 109.3,33.44 C109.33,33.79 109.3,34.06 109.3,35.63 L109.3,37.46 Z" id="Shape"></path>
            <path d="M126.85,35.64 C126.85,34.07 126.85,33.78 126.85,33.45 C126.85,33.12 126.95,32.91 127.23,32.86 C127.363163,32.850464 127.496837,32.850464 127.63,32.86 C127.76,32.86 127.82,32.86 127.82,32.76 C127.82,32.66 127.75,32.67 127.6,32.67 L126.19,32.67 C125.92,32.67 125.26,32.67 124.78,32.67 C124.62,32.67 124.55,32.67 124.55,32.76 C124.55,32.85 124.61,32.86 124.73,32.86 C124.843031,32.8482921 124.956969,32.8482921 125.07,32.86 C125.41,32.93 125.49,33.1 125.51,33.45 C125.53,33.8 125.51,34.07 125.51,35.64 L125.51,37.46 C125.51,38.46 125.51,39.23 125.46,39.66 C125.41,40.09 125.37,40.19 125.16,40.23 C125.037021,40.2432267 124.912979,40.2432267 124.79,40.23 C124.66,40.23 124.62,40.23 124.62,40.32 C124.62,40.41 124.7,40.42 124.83,40.42 L126.13,40.42 C126.97,40.42 127.65,40.48 129.13,40.48 C129.67,40.48 129.72,40.43 129.78,40.2 C129.86601,39.8084157 129.919525,39.4103957 129.94,39.01 C129.94,38.89 129.94,38.84 129.86,38.84 C129.78,38.84 129.75,38.9 129.74,38.99 C129.710753,39.2181271 129.617095,39.4331939 129.47,39.61 C129.22,39.89 128.81,39.9 128.26,39.9 C127.46,39.9 127.19,39.83 127.01,39.67 C126.83,39.51 126.8,38.77 126.8,37.45 L126.85,35.64 Z" id="Shape"></path>
            <path d="M144.87,37.79 C144.91536,37.7879234 144.956425,37.8166691 144.97,37.86 L145.8,40.05 C145.823351,40.0932369 145.82685,40.1444628 145.809596,40.1904735 C145.792342,40.2364841 145.756023,40.2727781 145.71,40.29 C145.61,40.29 145.56,40.29 145.56,40.39 C145.56,40.49 145.69,40.46 145.87,40.47 C146.7,40.47 147.46,40.47 147.87,40.47 C148.28,40.47 148.34,40.47 148.34,40.37 C148.34,40.27 148.29,40.28 148.21,40.28 C148.066984,40.2934868 147.923016,40.2934868 147.78,40.28 C147.56,40.23 147.26,40.09 146.87,39.15 C146.2,37.58 144.55,33.36 144.3,32.79 C144.2,32.56 144.14,32.46 144.04,32.46 C143.94,32.46 143.88,32.58 143.75,32.88 L141.16,39.37 C140.95,39.89 140.75,40.24 140.28,40.3 L139.96,40.3 C139.87,40.3 139.83,40.3 139.83,40.39 C139.83,40.48 139.89,40.49 140.03,40.49 C140.57,40.49 141.14,40.49 141.25,40.49 L142.35,40.49 C142.46,40.49 142.52,40.49 142.52,40.39 C142.52,40.29 142.52,40.3 142.37,40.3 L142.21,40.3 C141.89,40.3 141.8,40.17 141.8,39.98 C141.817124,39.7635072 141.867725,39.5509807 141.95,39.35 L142.51,37.87 C142.51,37.81 142.51,37.79 142.6,37.79 L144.87,37.79 Z M142.77,37.27 C142.77,37.27 142.72,37.27 142.77,37.2 L143.72,34.66 C143.72,34.61 143.72,34.56 143.78,34.56 C143.84,34.56 143.78,34.56 143.84,34.66 L144.77,37.21 C144.77,37.21 144.77,37.27 144.71,37.27 L142.77,37.27 Z" id="Shape"></path>
        </g>
    </g>
</svg>